<svg width="40" height="40" viewBox="0 0 40 40" fill="none" xmlns="http://www.w3.org/2000/svg">
<path d="M26.6667 13.3333C29.3188 13.3333 31.8624 14.3869 33.7377 16.2623C35.6131 18.1376 36.6667 20.6812 36.6667 23.3333V35H30V23.3333C30 22.4493 29.6488 21.6014 29.0237 20.9763C28.3986 20.3512 27.5507 20 26.6667 20C25.7826 20 24.9348 20.3512 24.3097 20.9763C23.6845 21.6014 23.3333 22.4493 23.3333 23.3333V35H16.6667V23.3333C16.6667 20.6812 17.7202 18.1376 19.5956 16.2623C21.471 14.3869 24.0145 13.3333 26.6667 13.3333Z" stroke="url(#paint0_linear_83_35)" stroke-opacity="0.98" stroke-width="4" stroke-linecap="round" stroke-linejoin="round"/>
<path d="M10 15H3.33334V35H10V15Z" stroke="url(#paint1_linear_83_35)" stroke-opacity="0.98" stroke-width="4" stroke-linecap="round" stroke-linejoin="round"/>
<path d="M6.66668 10C8.50763 10 10 8.50762 10 6.66667C10 4.82572 8.50763 3.33333 6.66668 3.33333C4.82573 3.33333 3.33334 4.82572 3.33334 6.66667C3.33334 8.50762 4.82573 10 6.66668 10Z" stroke="url(#paint2_linear_83_35)" stroke-opacity="0.98" stroke-width="4" stroke-linecap="round" stroke-linejoin="round"/>
<defs>
<linearGradient id="paint0_linear_83_35" x1="20" y1="3.33333" x2="20" y2="35" gradientUnits="userSpaceOnUse">
<stop stop-color="#FFD861"/>
<stop offset="0.620043" stop-color="#FAD45F" stop-opacity="0.998999"/>
<stop offset="1" stop-color="#99823A" stop-opacity="0.98"/>
</linearGradient>
<linearGradient id="paint1_linear_83_35" x1="20" y1="3.33333" x2="20" y2="35" gradientUnits="userSpaceOnUse">
<stop stop-color="#FFD861"/>
<stop offset="0.620043" stop-color="#FAD45F" stop-opacity="0.998999"/>
<stop offset="1" stop-color="#99823A" stop-opacity="0.98"/>
</linearGradient>
<linearGradient id="paint2_linear_83_35" x1="20" y1="3.33333" x2="20" y2="35" gradientUnits="userSpaceOnUse">
<stop stop-color="#FFD861"/>
<stop offset="0.620043" stop-color="#FAD45F" stop-opacity="0.998999"/>
<stop offset="1" stop-color="#99823A" stop-opacity="0.98"/>
</linearGradient>
</defs>
</svg>
